# xmcd CD database file
#
# Track frame offsets:
#	150
#	20517
#	39265
#	59350
#	82387
#	101990
#	116257
#	129865
#	140297
#	151222
#	171887
#	194832
#	208977
#	233830
#
# Disc length: 3446 seconds
#
# Revision: 0
# Processed by: cddbd v1.5PL3 Copyright (c) Steve Scherf et al.
# Submitted via: CDex 1.60beta1
#
DISCID=c50d740e
DTITLE=Tony Parenti - Tony Parenti and His Downtown Boys
DYEAR=1900
DGENRE=Jazz
TTITLE0=Railroad Man
TTITLE1=Atlanta Blues
TTITLE2=Wildcat Blues
TTITLE3=Chantez Les Bas
TTITLE4=Ballin' The Jack
TTITLE5=I Used To Love You
TTITLE6=At The Jazz Band Ball
TTITLE7=Louisiana
TTITLE8=Cecilia
TTITLE9=Eccentric Rag
TTITLE10=Shreveport Stomp
TTITLE11=Cataract Rag
TTITLE12=Stardust
TTITLE13=Alexander's Ragtime Band
EXTD=
EXTT0=
EXTT1=
EXTT2=
EXTT3=
EXTT4=
EXTT5=
EXTT6=
EXTT7=
EXTT8=
EXTT9=
EXTT10=
EXTT11=
EXTT12=
EXTT13=
PLAYORDER=
